<svg xmlns="http://www.w3.org/2000/svg" viewBox="0 0 120 120" role="img" aria-label="임시 로고 (아인슈타인 캐리커처)">
  <circle cx="60" cy="60" r="60" fill="#0a1128"/>
  <path d="M22,58 C10,40 18,16 40,14 C42,4 62,0 70,10 C88,4 106,22 98,42
           C112,44 114,66 100,70 C104,88 82,98 70,88 C64,100 44,98 40,86
           C22,90 8,72 22,58 Z" fill="#eef1f8"/>
  <ellipse cx="60" cy="64" rx="24" ry="28" fill="#e3b98c"/>
  <path d="M42,50 Q50,43 58,48" stroke="#c7ccd8" stroke-width="3" fill="none" stroke-linecap="round"/>
  <path d="M62,48 Q70,43 78,50" stroke="#c7ccd8" stroke-width="3" fill="none" stroke-linecap="round"/>
  <circle cx="50" cy="60" r="2.4" fill="#0a1128"/>
  <circle cx="70" cy="60" r="2.4" fill="#0a1128"/>
  <path d="M38,78 C46,70 54,76 60,73 C66,76 74,70 82,78
           C76,84 66,77 60,80 C54,77 44,84 38,78 Z" fill="#eef1f8"/>
</svg>
